<svg xmlns="http://www.w3.org/2000/svg" width="1200" height="600" viewBox="0 0 1200 600">
  <!-- 背景 -->
  <rect width="1200" height="600" fill="#0078d4"/>
  
  <!-- 抽象清洁图案 -->
  <g opacity="0.2" fill="#ffffff">
    <!-- 水滴图案 -->
    <path d="M100,100 Q150,50 200,100 T300,100 Q350,50 400,100 T500,100" stroke="white" stroke-width="5" fill="none"/>
    <path d="M700,200 Q750,150 800,200 T900,200 Q950,150 1000,200 T1100,200" stroke="white" stroke-width="5" fill="none"/>
    <path d="M200,300 Q250,250 300,300 T400,300 Q450,250 500,300 T600,300" stroke="white" stroke-width="5" fill="none"/>
    <path d="M800,400 Q850,350 900,400 T1000,400 Q1050,350 1100,400 T1200,400" stroke="white" stroke-width="5" fill="none"/>
    
    <!-- 圆形气泡 -->
    <circle cx="150" cy="150" r="20"/>
    <circle cx="250" cy="200" r="15"/>
    <circle cx="350" cy="150" r="25"/>
    <circle cx="450" cy="250" r="18"/>
    <circle cx="550" cy="180" r="22"/>
    <circle cx="650" cy="220" r="17"/>
    <circle cx="750" cy="150" r="23"/>
    <circle cx="850" cy="250" r="19"/>
    <circle cx="950" cy="180" r="21"/>
    <circle cx="1050" cy="220" r="16"/>
    
    <!-- 小气泡 -->
    <circle cx="120" cy="280" r="5"/>
    <circle cx="220" cy="320" r="7"/>
    <circle cx="320" cy="280" r="6"/>
    <circle cx="420" cy="350" r="8"/>
    <circle cx="520" cy="300" r="5"/>
    <circle cx="620" cy="330" r="7"/>
    <circle cx="720" cy="280" r="6"/>
    <circle cx="820" cy="350" r="8"/>
    <circle cx="920" cy="300" r="5"/>
    <circle cx="1020" cy="330" r="7"/>
  </g>
  
  <!-- 清洁工具图标 -->
  <g transform="translate(600, 300)" fill="#ffffff" opacity="0.5">
    <!-- 扫帚图标 -->
    <path d="M-200,-50 L-180,150 L-160,150 L-140,-50 Z" fill="#ffffff"/>
    <path d="M-190,-70 L-150,-70 L-140,-50 L-200,-50 Z" fill="#ffffff"/>
    
    <!-- 水桶图标 -->
    <path d="M0,-100 L50,-100 L60,100 L-10,100 Z" fill="#ffffff"/>
    <path d="M-20,-120 L70,-120 L50,-100 L0,-100 Z" fill="#ffffff"/>
    <path d="M10,-150 L40,-150 L40,-120 L10,-120 Z" fill="#ffffff"/>
    
    <!-- 抹布图标 -->
    <rect x="150" y="-50" width="100" height="20" rx="5" fill="#ffffff"/>
    <rect x="170" y="-30" width="60" height="80" rx="5" fill="#ffffff"/>
  </g>
</svg>